<svg id="visual" viewBox="0 0 900 600" width="900" height="600" xmlns="http://www.w3.org/2000/svg" xmlns:xlink="http://www.w3.org/1999/xlink" version="1.1"><rect width="900" height="600" fill="#222"></rect><g><g transform="translate(46 134)"><path d="M68.5 -71.8C82 -55 81.3 -27.5 80 -1.3C78.7 24.9 76.6 49.7 63.2 68.8C49.7 87.9 24.9 101.2 1.4 99.8C-22 98.3 -43.9 82.1 -60.4 63C-77 43.9 -88 22 -86.1 1.9C-84.2 -18.1 -69.3 -36.3 -52.8 -53.1C-36.3 -69.8 -18.1 -85.2 4.7 -89.9C27.5 -94.6 55 -88.6 68.5 -71.8Z" stroke="#a3a3a3" fill="none" stroke-width="8"></path></g><g transform="translate(710 6)"><path d="M50.2 -49.2C62.1 -38.3 66.7 -19.1 68 1.3C69.2 21.7 67.1 43.3 55.2 59C43.3 74.6 21.7 84.2 0.1 84.1C-21.4 83.9 -42.8 74.1 -57.5 58.4C-72.2 42.8 -80.3 21.4 -80.2 0.1C-80.2 -21.3 -72 -42.5 -57.2 -53.4C-42.5 -64.3 -21.3 -64.7 -1.1 -63.7C19.1 -62.6 38.3 -60 50.2 -49.2Z" stroke="#a3a3a3" fill="none" stroke-width="8"></path></g><g transform="translate(355 291)"><path d="M7.3 -7.5C9.2 -5.4 10.4 -2.7 10.2 -0.2C10 2.3 8.4 4.6 6.5 6.7C4.6 8.9 2.3 10.8 -0.2 11C-2.6 11.2 -5.3 9.6 -6.8 7.4C-8.3 5.3 -8.6 2.6 -8.4 0.2C-8.2 -2.3 -7.5 -4.5 -6 -6.6C-4.5 -8.8 -2.3 -10.8 0.2 -11C2.7 -11.2 5.4 -9.6 7.3 -7.5Z" stroke="#a3a3a3" fill="none" stroke-width="8"></path></g><g transform="translate(789 392)"><path d="M19.2 -21.3C23.3 -15.1 24 -7.5 23.1 -0.9C22.2 5.8 19.7 11.5 15.6 16.4C11.5 21.2 5.8 25.2 -0.6 25.8C-7 26.4 -13.9 23.6 -19.4 18.8C-25 13.9 -29 7 -29.6 -0.6C-30.2 -8.1 -27.2 -16.2 -21.7 -22.4C-16.2 -28.7 -8.1 -33 -0.3 -32.7C7.5 -32.5 15.1 -27.5 19.2 -21.3Z" stroke="#a3a3a3" fill="none" stroke-width="8"></path></g><g transform="translate(437 4)"><path d="M10.9 -10.1C13.7 -8.1 15.4 -4 15.2 -0.2C15 3.6 13 7.3 10.1 10.2C7.3 13.1 3.6 15.2 -0.1 15.3C-3.9 15.4 -7.8 13.5 -10.6 10.6C-13.5 7.8 -15.4 3.9 -15.2 0.2C-15 -3.5 -12.7 -6.9 -9.8 -8.9C-6.9 -10.9 -3.5 -11.5 0.3 -11.8C4 -12.1 8.1 -12.1 10.9 -10.1Z" stroke="#a3a3a3" fill="none" stroke-width="8"></path></g><g transform="translate(609 589)"><path d="M21.8 -20.6C27.7 -15.9 31.6 -8 32.3 0.7C33 9.3 30.5 18.7 24.6 24.8C18.7 30.9 9.3 33.7 1 32.7C-7.3 31.7 -14.5 26.7 -20.7 20.6C-26.8 14.5 -31.9 7.3 -31.5 0.5C-31 -6.4 -25 -12.7 -18.9 -17.4C-12.7 -22.1 -6.4 -25.1 0.8 -25.9C8 -26.7 15.9 -25.3 21.8 -20.6Z" stroke="#a3a3a3" fill="none" stroke-width="8"></path></g><g transform="translate(47 389)"><path d="M39.8 -40.6C50.6 -28.9 57.9 -14.4 58.1 0.2C58.3 14.9 51.5 29.8 40.7 39.4C29.8 49 14.9 53.3 -0.4 53.7C-15.8 54.2 -31.6 50.8 -45 41.2C-58.5 31.6 -69.7 15.8 -68.9 0.9C-68 -14 -55 -28.1 -41.6 -39.8C-28.1 -51.5 -14 -60.9 0.2 -61.1C14.4 -61.4 28.9 -52.4 39.8 -40.6Z" stroke="#a3a3a3" fill="none" stroke-width="8"></path></g><g transform="translate(882 172)"><path d="M28.3 -31.6C35.4 -21.1 39.2 -10.6 41 1.8C42.9 14.2 42.8 28.5 35.6 35.8C28.5 43.2 14.2 43.8 1.8 42C-10.6 40.1 -21.2 36 -31.5 28.6C-41.7 21.2 -51.6 10.6 -53.5 -1.8C-55.3 -14.3 -49.1 -28.6 -38.8 -39.1C-28.6 -49.6 -14.3 -56.3 -1.9 -54.5C10.6 -52.6 21.1 -42.1 28.3 -31.6Z" stroke="#a3a3a3" fill="none" stroke-width="8"></path></g><g transform="translate(206 590)"><path d="M36.8 -37.6C45.4 -28.1 48.5 -14.1 47.3 -1.2C46.2 11.7 40.7 23.5 32.1 32.2C23.5 40.8 11.7 46.5 -1.2 47.7C-14.2 49 -28.4 45.8 -37.4 37.1C-46.4 28.4 -50.1 14.2 -48 2.1C-45.9 -9.9 -37.9 -19.9 -28.9 -29.3C-19.9 -38.8 -9.9 -47.7 2.1 -49.8C14.1 -51.8 28.1 -47 36.8 -37.6Z" stroke="#a3a3a3" fill="none" stroke-width="8"></path></g><g transform="translate(603 241)"><path d="M39.5 -37.5C51.7 -27.3 62.5 -13.7 63 0.5C63.5 14.7 53.8 29.4 41.6 38.5C29.4 47.7 14.7 51.3 0.7 50.6C-13.3 49.9 -26.6 44.9 -38.2 35.8C-49.7 26.6 -59.6 13.3 -61.4 -1.9C-63.3 -17.1 -57.3 -34.1 -45.7 -44.3C-34.1 -54.5 -17.1 -57.9 -1.7 -56.2C13.7 -54.5 27.3 -47.7 39.5 -37.5Z" stroke="#a3a3a3" fill="none" stroke-width="8"></path></g></g></svg>