<svg id="visual" viewBox="0 0 900 600" width="900" height="600" xmlns="http://www.w3.org/2000/svg" xmlns:xlink="http://www.w3.org/1999/xlink" version="1.1"><rect x="0" y="0" width="900" height="600" fill="#2d2d2d"></rect><path d="M0 439L129 357L257 377L386 378L514 377L643 359L771 437L900 370L900 601L771 601L643 601L514 601L386 601L257 601L129 601L0 601Z" fill="#bcbcbc"></path><path d="M0 472L129 446L257 418L386 415L514 410L643 396L771 461L900 438L900 601L771 601L643 601L514 601L386 601L257 601L129 601L0 601Z" fill="#9a9a9a"></path><path d="M0 507L129 479L257 441L386 472L514 454L643 447L771 464L900 473L900 601L771 601L643 601L514 601L386 601L257 601L129 601L0 601Z" fill="#7a7a7a"></path><path d="M0 510L129 531L257 512L386 518L514 518L643 541L771 508L900 540L900 601L771 601L643 601L514 601L386 601L257 601L129 601L0 601Z" fill="#5b5b5b"></path><path d="M0 559L129 564L257 534L386 564L514 562L643 561L771 563L900 564L900 601L771 601L643 601L514 601L386 601L257 601L129 601L0 601Z" fill="#3e3e3e"></path></svg>