<svg id="visual" viewBox="0 0 900 600" width="900" height="600" xmlns="http://www.w3.org/2000/svg" xmlns:xlink="http://www.w3.org/1999/xlink" version="1.1"><g stroke-width="1" stroke-linejoin="bevel"><path d="M471.6 306.7L524.6 347.3L538.8 338.3Z" fill="#ffa5ff" stroke="#000000"></path><path d="M538.8 338.3L568.8 281.7L471.6 306.7Z" fill="#ff91ff" stroke="#000000"></path><path d="M520.8 415L584.1 337.3L538.8 338.3Z" fill="#ffeeff" stroke="#000000"></path><path d="M538.8 338.3L584.1 337.3L568.8 281.7Z" fill="#ff91ff" stroke="#000000"></path><path d="M471.6 306.7L429.4 375L524.6 347.3Z" fill="#ffcaff" stroke="#000000"></path><path d="M524.6 347.3L520.8 415L538.8 338.3Z" fill="#ffb8ff" stroke="#000000"></path><path d="M429.4 375L520.8 415L524.6 347.3Z" fill="#ffdcff" stroke="#000000"></path><path d="M471.6 306.7L410.4 360.3L429.4 375Z" fill="#ff7cff" stroke="#000000"></path><path d="M471.6 306.7L386.2 332.3L410.4 360.3Z" fill="#ffeeff" stroke="#000000"></path><path d="M584.1 337.3L622.1 242.7L568.8 281.7Z" fill="#ffffff" stroke="#000000"></path><path d="M568.8 281.7L527.8 168L471.6 306.7Z" fill="#ff45ff" stroke="#000000"></path><path d="M471.6 306.7L380.4 297.7L386.2 332.3Z" fill="#ff45ff" stroke="#000000"></path><path d="M430.4 172L380.4 297.7L471.6 306.7Z" fill="#ffb8ff" stroke="#000000"></path><path d="M400.4 489.7L489.6 441L429.4 375Z" fill="#ff00ff" stroke="#000000"></path><path d="M429.4 375L489.6 441L520.8 415Z" fill="#ff00ff" stroke="#000000"></path><path d="M622.1 242.7L527.8 168L568.8 281.7Z" fill="#ffeeff" stroke="#000000"></path><path d="M527.8 168L430.4 172L471.6 306.7Z" fill="#ffcaff" stroke="#000000"></path><path d="M687.3 295.7L650.1 231L622.1 242.7Z" fill="#ff00ff" stroke="#000000"></path><path d="M622.1 242.7L590.1 129.3L527.8 168Z" fill="#ff45ff" stroke="#000000"></path><path d="M527.8 168L445.6 157L430.4 172Z" fill="#ff7cff" stroke="#000000"></path><path d="M527.8 168L503.6 135.3L445.6 157Z" fill="#ffb8ff" stroke="#000000"></path><path d="M515.8 123.3L503.6 135.3L527.8 168Z" fill="#ffa5ff" stroke="#000000"></path><path d="M489.6 441L527.6 484.7L520.8 415Z" fill="#ffa5ff" stroke="#000000"></path><path d="M630.1 443.7L654.1 413L584.1 337.3Z" fill="#ffcaff" stroke="#000000"></path><path d="M584.1 337.3L687.3 295.7L622.1 242.7Z" fill="#ffdcff" stroke="#000000"></path><path d="M509.6 529.3L527.6 484.7L489.6 441Z" fill="#ff64ff" stroke="#000000"></path><path d="M630.1 443.7L584.1 337.3L520.8 415Z" fill="#ffeeff" stroke="#000000"></path><path d="M699.3 376.3L687.3 295.7L584.1 337.3Z" fill="#ffa5ff" stroke="#000000"></path><path d="M572.8 497.7L630.1 443.7L520.8 415Z" fill="#ffffff" stroke="#000000"></path><path d="M630.1 443.7L658.3 413L654.1 413Z" fill="#ff7cff" stroke="#000000"></path><path d="M654.1 413L699.3 376.3L584.1 337.3Z" fill="#ffdcff" stroke="#000000"></path><path d="M730.5 290.3L659.3 207L650.1 231Z" fill="#ffdcff" stroke="#000000"></path><path d="M650.1 231L659.3 207L622.1 242.7Z" fill="#ffdcff" stroke="#000000"></path><path d="M590.1 129.3L515.8 123.3L527.8 168Z" fill="#ff45ff" stroke="#000000"></path><path d="M503.6 135.3L446.4 120.3L445.6 157Z" fill="#ffb8ff" stroke="#000000"></path><path d="M386.2 332.3L339.2 386L410.4 360.3Z" fill="#ffeeff" stroke="#000000"></path><path d="M410.4 360.3L339.2 386L429.4 375Z" fill="#ffdcff" stroke="#000000"></path><path d="M288.9 309.7L339.2 386L386.2 332.3Z" fill="#ffcaff" stroke="#000000"></path><path d="M288.9 309.7L386.2 332.3L380.4 297.7Z" fill="#ffb8ff" stroke="#000000"></path><path d="M659.3 207L590.1 129.3L622.1 242.7Z" fill="#ffa5ff" stroke="#000000"></path><path d="M527.6 484.7L572.8 497.7L520.8 415Z" fill="#ff64ff" stroke="#000000"></path><path d="M761.5 451.7L699.3 376.3L658.3 413Z" fill="#ff7cff" stroke="#000000"></path><path d="M658.3 413L699.3 376.3L654.1 413Z" fill="#ffdcff" stroke="#000000"></path><path d="M315.2 168L316.2 266.7L430.4 172Z" fill="#ffffff" stroke="#000000"></path><path d="M430.4 172L316.2 266.7L380.4 297.7Z" fill="#ff45ff" stroke="#000000"></path><path d="M479.6 78.7L446.4 120.3L503.6 135.3Z" fill="#ff91ff" stroke="#000000"></path><path d="M445.6 157L446.4 120.3L430.4 172Z" fill="#ffffff" stroke="#000000"></path><path d="M339.2 386L400.4 489.7L429.4 375Z" fill="#ffeeff" stroke="#000000"></path><path d="M527.6 484.7L509.6 529.3L572.8 497.7Z" fill="#ffb8ff" stroke="#000000"></path><path d="M400.4 489.7L509.6 529.3L489.6 441Z" fill="#ff00ff" stroke="#000000"></path><path d="M699.3 376.3L730.5 290.3L687.3 295.7Z" fill="#ffffff" stroke="#000000"></path><path d="M687.3 295.7L730.5 290.3L650.1 231Z" fill="#ff00ff" stroke="#000000"></path><path d="M316.2 266.7L288.9 309.7L380.4 297.7Z" fill="#ff64ff" stroke="#000000"></path><path d="M339.2 386L371.4 492.3L400.4 489.7Z" fill="#ffb8ff" stroke="#000000"></path><path d="M267.9 368.3L309.9 418L339.2 386Z" fill="#ffb8ff" stroke="#000000"></path><path d="M309.9 418L371.4 492.3L339.2 386Z" fill="#ffb8ff" stroke="#000000"></path><path d="M400.4 489.7L388.2 566.3L509.6 529.3Z" fill="#ffdcff" stroke="#000000"></path><path d="M515.8 123.3L479.6 78.7L503.6 135.3Z" fill="#ffffff" stroke="#000000"></path><path d="M304.2 111.3L315.2 168L347.2 67.7Z" fill="#ffeeff" stroke="#000000"></path><path d="M537.8 32.7L479.6 78.7L515.8 123.3Z" fill="#ffdcff" stroke="#000000"></path><path d="M572.8 497.7L679.3 479.7L630.1 443.7Z" fill="#ff64ff" stroke="#000000"></path><path d="M630.1 443.7L679.3 479.7L658.3 413Z" fill="#ff7cff" stroke="#000000"></path><path d="M795.5 382L794.5 301.7L730.5 290.3Z" fill="#ffa5ff" stroke="#000000"></path><path d="M674.3 541.3L679.3 479.7L572.8 497.7Z" fill="#ff45ff" stroke="#000000"></path><path d="M315.2 168L430.4 172L347.2 67.7Z" fill="#ffa5ff" stroke="#000000"></path><path d="M316.2 266.7L229.7 295.3L288.9 309.7Z" fill="#ffcaff" stroke="#000000"></path><path d="M304.2 111.3L307.9 169L315.2 168Z" fill="#ffeeff" stroke="#000000"></path><path d="M315.2 168L307.9 169L316.2 266.7Z" fill="#ff00ff" stroke="#000000"></path><path d="M248.7 373L267.9 368.3L229.7 295.3Z" fill="#ffcaff" stroke="#000000"></path><path d="M288.9 309.7L267.9 368.3L339.2 386Z" fill="#ff64ff" stroke="#000000"></path><path d="M309.9 418L304.2 476.7L371.4 492.3Z" fill="#ff45ff" stroke="#000000"></path><path d="M717.5 122.3L685.3 126.3L659.3 207Z" fill="#ff91ff" stroke="#000000"></path><path d="M659.3 207L685.3 126.3L590.1 129.3Z" fill="#ffeeff" stroke="#000000"></path><path d="M590.1 129.3L537.8 32.7L515.8 123.3Z" fill="#ff7cff" stroke="#000000"></path><path d="M515.8 600L542.8 567.3L509.6 529.3Z" fill="#ff91ff" stroke="#000000"></path><path d="M509.6 529.3L542.8 567.3L572.8 497.7Z" fill="#ff00ff" stroke="#000000"></path><path d="M234.7 474.7L304.2 476.7L309.9 418Z" fill="#ffa5ff" stroke="#000000"></path><path d="M371.4 492.3L388.2 566.3L400.4 489.7Z" fill="#ffffff" stroke="#000000"></path><path d="M685.3 126.3L670.3 94.7L590.1 129.3Z" fill="#ffffff" stroke="#000000"></path><path d="M229.7 295.3L267.9 368.3L288.9 309.7Z" fill="#ffeeff" stroke="#000000"></path><path d="M267.9 368.3L248.7 373L309.9 418Z" fill="#ff00ff" stroke="#000000"></path><path d="M476.6 0L416.4 49.7L479.6 78.7Z" fill="#ff00ff" stroke="#000000"></path><path d="M479.6 78.7L416.4 49.7L446.4 120.3Z" fill="#ffffff" stroke="#000000"></path><path d="M542.8 567.3L613.1 569.3L572.8 497.7Z" fill="#ffdcff" stroke="#000000"></path><path d="M620.1 31.7L537.8 32.7L590.1 129.3Z" fill="#ffa5ff" stroke="#000000"></path><path d="M685.3 126.3L717.5 122.3L670.3 94.7Z" fill="#ff00ff" stroke="#000000"></path><path d="M785.5 179L717.5 122.3L659.3 207Z" fill="#ff45ff" stroke="#000000"></path><path d="M236.7 222.7L229.7 295.3L316.2 266.7Z" fill="#ff64ff" stroke="#000000"></path><path d="M613.1 569.3L674.3 541.3L572.8 497.7Z" fill="#ffb8ff" stroke="#000000"></path><path d="M795.5 382L730.5 290.3L699.3 376.3Z" fill="#ffdcff" stroke="#000000"></path><path d="M761.5 451.7L658.3 413L679.3 479.7Z" fill="#ffcaff" stroke="#000000"></path><path d="M730.5 290.3L789.8 231.7L659.3 207Z" fill="#ffffff" stroke="#000000"></path><path d="M304.9 548.3L388.2 566.3L371.4 492.3Z" fill="#ffeeff" stroke="#000000"></path><path d="M542.8 567.3L583.1 600L613.1 569.3Z" fill="#ffb8ff" stroke="#000000"></path><path d="M347.2 67.7L430.4 172L446.4 120.3Z" fill="#ffb8ff" stroke="#000000"></path><path d="M307.9 169L236.7 222.7L316.2 266.7Z" fill="#ff00ff" stroke="#000000"></path><path d="M782.5 537.3L761.5 451.7L679.3 479.7Z" fill="#ff45ff" stroke="#000000"></path><path d="M251.9 141.3L236.7 222.7L307.9 169Z" fill="#ffcaff" stroke="#000000"></path><path d="M792.8 236L789.8 231.7L730.5 290.3Z" fill="#ffffff" stroke="#000000"></path><path d="M429.4 600L515.8 600L509.6 529.3Z" fill="#ffcaff" stroke="#000000"></path><path d="M515.8 600L521.6 600L542.8 567.3Z" fill="#ff7cff" stroke="#000000"></path><path d="M794.5 301.7L792.8 236L730.5 290.3Z" fill="#ff7cff" stroke="#000000"></path><path d="M789.8 231.7L785.5 179L659.3 207Z" fill="#ffb8ff" stroke="#000000"></path><path d="M416.4 49.7L347.2 67.7L446.4 120.3Z" fill="#ff7cff" stroke="#000000"></path><path d="M761.5 451.7L795.5 382L699.3 376.3Z" fill="#ff45ff" stroke="#000000"></path><path d="M234.7 474.7L289.9 506.7L304.2 476.7Z" fill="#ffeeff" stroke="#000000"></path><path d="M304.2 476.7L289.9 506.7L371.4 492.3Z" fill="#ff00ff" stroke="#000000"></path><path d="M521.6 600L583.1 600L542.8 567.3Z" fill="#ff64ff" stroke="#000000"></path><path d="M613.1 569.3L683.3 600L674.3 541.3Z" fill="#ff7cff" stroke="#000000"></path><path d="M670.3 94.7L620.1 31.7L590.1 129.3Z" fill="#ff7cff" stroke="#000000"></path><path d="M665.3 0L620.1 31.7L670.3 94.7Z" fill="#ff00ff" stroke="#000000"></path><path d="M795.5 382L811.8 305.3L794.5 301.7Z" fill="#ff7cff" stroke="#000000"></path><path d="M794.5 301.7L811.8 305.3L792.8 236Z" fill="#ff91ff" stroke="#000000"></path><path d="M313.9 600L429.4 600L388.2 566.3Z" fill="#ffeeff" stroke="#000000"></path><path d="M388.2 566.3L429.4 600L509.6 529.3Z" fill="#ff91ff" stroke="#000000"></path><path d="M860.8 131.3L785.5 179L900 219Z" fill="#ffcaff" stroke="#000000"></path><path d="M792.8 236L785.5 179L789.8 231.7Z" fill="#ffb8ff" stroke="#000000"></path><path d="M717.5 122.3L750.5 85.7L670.3 94.7Z" fill="#ff45ff" stroke="#000000"></path><path d="M194.7 116.3L251.9 141.3L221.7 70.7Z" fill="#ffeeff" stroke="#000000"></path><path d="M304.2 111.3L251.9 141.3L307.9 169Z" fill="#ffb8ff" stroke="#000000"></path><path d="M583.1 0L517.8 0L537.8 32.7Z" fill="#ffb8ff" stroke="#000000"></path><path d="M537.8 32.7L476.6 0L479.6 78.7Z" fill="#ffcaff" stroke="#000000"></path><path d="M364.2 0L316.9 51.7L347.2 67.7Z" fill="#ff7cff" stroke="#000000"></path><path d="M761.5 451.7L792.8 441L795.5 382Z" fill="#ff64ff" stroke="#000000"></path><path d="M795.5 382L900 361.3L811.8 305.3Z" fill="#ffcaff" stroke="#000000"></path><path d="M819.8 480.7L792.8 441L761.5 451.7Z" fill="#ff64ff" stroke="#000000"></path><path d="M517.8 0L476.6 0L537.8 32.7Z" fill="#ff91ff" stroke="#000000"></path><path d="M289.9 506.7L304.9 548.3L371.4 492.3Z" fill="#ff7cff" stroke="#000000"></path><path d="M620.1 31.7L583.1 0L537.8 32.7Z" fill="#ff91ff" stroke="#000000"></path><path d="M248.7 373L234.7 474.7L309.9 418Z" fill="#ffcaff" stroke="#000000"></path><path d="M289.9 506.7L214.7 526.3L304.9 548.3Z" fill="#ffa5ff" stroke="#000000"></path><path d="M147.5 373L234.7 474.7L248.7 373Z" fill="#ffb8ff" stroke="#000000"></path><path d="M386.4 0L347.2 67.7L416.4 49.7Z" fill="#ff64ff" stroke="#000000"></path><path d="M347.2 67.7L316.9 51.7L304.2 111.3Z" fill="#ff7cff" stroke="#000000"></path><path d="M785.5 179L750.5 85.7L717.5 122.3Z" fill="#ffa5ff" stroke="#000000"></path><path d="M620.1 31.7L665.3 0L583.1 0Z" fill="#ff7cff" stroke="#000000"></path><path d="M476.6 0L386.4 0L416.4 49.7Z" fill="#ff7cff" stroke="#000000"></path><path d="M583.1 600L683.3 600L613.1 569.3Z" fill="#ff64ff" stroke="#000000"></path><path d="M782.5 537.3L819.8 480.7L761.5 451.7Z" fill="#ffb8ff" stroke="#000000"></path><path d="M386.4 0L364.2 0L347.2 67.7Z" fill="#ffffff" stroke="#000000"></path><path d="M750.5 85.7L665.3 0L670.3 94.7Z" fill="#ffeeff" stroke="#000000"></path><path d="M313.2 600L313.9 600L304.9 548.3Z" fill="#ff64ff" stroke="#000000"></path><path d="M304.9 548.3L313.9 600L388.2 566.3Z" fill="#ffffff" stroke="#000000"></path><path d="M214.7 526.3L313.2 600L304.9 548.3Z" fill="#ff7cff" stroke="#000000"></path><path d="M782.5 537.3L679.3 479.7L674.3 541.3Z" fill="#ff91ff" stroke="#000000"></path><path d="M900 400L900 361.3L795.5 382Z" fill="#ff7cff" stroke="#000000"></path><path d="M768.5 600L782.5 537.3L674.3 541.3Z" fill="#ff64ff" stroke="#000000"></path><path d="M236.7 222.7L163.7 234L229.7 295.3Z" fill="#ffeeff" stroke="#000000"></path><path d="M229.7 295.3L147.5 373L248.7 373Z" fill="#ff7cff" stroke="#000000"></path><path d="M194.7 116.3L163.7 234L236.7 222.7Z" fill="#ff7cff" stroke="#000000"></path><path d="M194.7 116.3L236.7 222.7L251.9 141.3Z" fill="#ffcaff" stroke="#000000"></path><path d="M163.7 234L151.5 309.3L229.7 295.3Z" fill="#ff00ff" stroke="#000000"></path><path d="M127.5 502.3L214.7 526.3L234.7 474.7Z" fill="#ff00ff" stroke="#000000"></path><path d="M234.7 474.7L214.7 526.3L289.9 506.7Z" fill="#ff64ff" stroke="#000000"></path><path d="M151.5 309.3L147.5 373L229.7 295.3Z" fill="#ff45ff" stroke="#000000"></path><path d="M221.7 70.7L304.2 111.3L316.9 51.7Z" fill="#ffcaff" stroke="#000000"></path><path d="M221.7 70.7L251.9 141.3L304.2 111.3Z" fill="#ff00ff" stroke="#000000"></path><path d="M295.9 0L221.7 70.7L316.9 51.7Z" fill="#ffcaff" stroke="#000000"></path><path d="M816.8 600L826.8 515.3L782.5 537.3Z" fill="#ff45ff" stroke="#000000"></path><path d="M782.5 537.3L826.8 515.3L819.8 480.7Z" fill="#ff7cff" stroke="#000000"></path><path d="M900 400L795.5 382L792.8 441Z" fill="#ffb8ff" stroke="#000000"></path><path d="M364.2 0L295.9 0L316.9 51.7Z" fill="#ff64ff" stroke="#000000"></path><path d="M683.3 600L768.5 600L674.3 541.3Z" fill="#ff7cff" stroke="#000000"></path><path d="M900 400L792.8 441L900 447.7Z" fill="#ff00ff" stroke="#000000"></path><path d="M900 219L785.5 179L792.8 236Z" fill="#ff64ff" stroke="#000000"></path><path d="M785.5 179L860.8 131.3L750.5 85.7Z" fill="#ffcaff" stroke="#000000"></path><path d="M900 234.7L792.8 236L811.8 305.3Z" fill="#ffdcff" stroke="#000000"></path><path d="M750.5 85.7L773.5 0L665.3 0Z" fill="#ff7cff" stroke="#000000"></path><path d="M163.7 234L122.5 250.7L151.5 309.3Z" fill="#ffa5ff" stroke="#000000"></path><path d="M151.5 309.3L90.2 383L147.5 373Z" fill="#ffeeff" stroke="#000000"></path><path d="M129.5 195L122.5 250.7L163.7 234Z" fill="#ffffff" stroke="#000000"></path><path d="M900 361.3L900 234.7L811.8 305.3Z" fill="#ffffff" stroke="#000000"></path><path d="M194.7 116.3L129.5 195L163.7 234Z" fill="#ffa5ff" stroke="#000000"></path><path d="M119.5 101.3L129.5 195L194.7 116.3Z" fill="#ff00ff" stroke="#000000"></path><path d="M900 447.7L792.8 441L819.8 480.7Z" fill="#ffb8ff" stroke="#000000"></path><path d="M900 234.7L900 219L792.8 236Z" fill="#ffffff" stroke="#000000"></path><path d="M174.7 0L176.5 87.7L221.7 70.7Z" fill="#ffdcff" stroke="#000000"></path><path d="M221.7 70.7L176.5 87.7L194.7 116.3Z" fill="#ffffff" stroke="#000000"></path><path d="M862.8 105.7L773.5 0L750.5 85.7Z" fill="#ffffff" stroke="#000000"></path><path d="M900 114.3L862.8 105.7L860.8 131.3Z" fill="#ffffff" stroke="#000000"></path><path d="M860.8 131.3L862.8 105.7L750.5 85.7Z" fill="#ffeeff" stroke="#000000"></path><path d="M826.8 515.3L900 447.7L819.8 480.7Z" fill="#ffcaff" stroke="#000000"></path><path d="M900 561.3L900 447.7L826.8 515.3Z" fill="#ffffff" stroke="#000000"></path><path d="M68.2 123.3L95.2 243L129.5 195Z" fill="#ffdcff" stroke="#000000"></path><path d="M129.5 195L95.2 243L122.5 250.7Z" fill="#ffeeff" stroke="#000000"></path><path d="M122.5 250.7L73.2 299.3L151.5 309.3Z" fill="#ffb8ff" stroke="#000000"></path><path d="M768.5 600L816.8 600L782.5 537.3Z" fill="#ff91ff" stroke="#000000"></path><path d="M73.2 299.3L90.2 383L151.5 309.3Z" fill="#ffdcff" stroke="#000000"></path><path d="M147.5 373L127.5 502.3L234.7 474.7Z" fill="#ffb8ff" stroke="#000000"></path><path d="M90.2 383L127.5 502.3L147.5 373Z" fill="#ffdcff" stroke="#000000"></path><path d="M214.7 526.3L179.7 600L313.2 600Z" fill="#ffb8ff" stroke="#000000"></path><path d="M900 219L900 114.3L860.8 131.3Z" fill="#ffcaff" stroke="#000000"></path><path d="M862.8 105.7L861.8 0L773.5 0Z" fill="#ffeeff" stroke="#000000"></path><path d="M95.2 243L73.2 299.3L122.5 250.7Z" fill="#ffffff" stroke="#000000"></path><path d="M169.5 600L179.7 600L214.7 526.3Z" fill="#ffffff" stroke="#000000"></path><path d="M143.5 0L119.5 101.3L176.5 87.7Z" fill="#ff91ff" stroke="#000000"></path><path d="M176.5 87.7L119.5 101.3L194.7 116.3Z" fill="#ffa5ff" stroke="#000000"></path><path d="M95.2 243L32.2 287.7L73.2 299.3Z" fill="#ff7cff" stroke="#000000"></path><path d="M127.5 502.3L169.5 600L214.7 526.3Z" fill="#ffa5ff" stroke="#000000"></path><path d="M76.2 505.3L127.5 502.3L38.2 446.7Z" fill="#ffcaff" stroke="#000000"></path><path d="M76.2 505.3L104.5 509.7L127.5 502.3Z" fill="#ff91ff" stroke="#000000"></path><path d="M127.5 502.3L104.5 509.7L169.5 600Z" fill="#ffcaff" stroke="#000000"></path><path d="M295.9 0L174.7 0L221.7 70.7Z" fill="#ff45ff" stroke="#000000"></path><path d="M900 114.3L900 66.7L862.8 105.7Z" fill="#ffeeff" stroke="#000000"></path><path d="M816.8 600L900 561.3L826.8 515.3Z" fill="#ff45ff" stroke="#000000"></path><path d="M900 66.7L861.8 0L862.8 105.7Z" fill="#ff64ff" stroke="#000000"></path><path d="M38.2 446.7L127.5 502.3L90.2 383Z" fill="#ffdcff" stroke="#000000"></path><path d="M104.5 509.7L63.2 600L169.5 600Z" fill="#ffffff" stroke="#000000"></path><path d="M0 242L32.2 287.7L95.2 243Z" fill="#ff00ff" stroke="#000000"></path><path d="M73.2 299.3L0 346.3L90.2 383Z" fill="#ff45ff" stroke="#000000"></path><path d="M119.5 101.3L68.2 123.3L129.5 195Z" fill="#ffdcff" stroke="#000000"></path><path d="M66.2 56.7L68.2 123.3L119.5 101.3Z" fill="#ffffff" stroke="#000000"></path><path d="M174.7 0L143.5 0L176.5 87.7Z" fill="#ffffff" stroke="#000000"></path><path d="M816.8 600L900 600L900 561.3Z" fill="#ffeeff" stroke="#000000"></path><path d="M0 367L38.2 446.7L90.2 383Z" fill="#ffffff" stroke="#000000"></path><path d="M900 66.7L900 0L861.8 0Z" fill="#ff91ff" stroke="#000000"></path><path d="M0 242L0 295.7L32.2 287.7Z" fill="#ff00ff" stroke="#000000"></path><path d="M32.2 287.7L0 346.3L73.2 299.3Z" fill="#ffdcff" stroke="#000000"></path><path d="M143.5 0L104.2 0L119.5 101.3Z" fill="#ff45ff" stroke="#000000"></path><path d="M68.2 123.3L0 242L95.2 243Z" fill="#ffeeff" stroke="#000000"></path><path d="M104.2 0L66.2 56.7L119.5 101.3Z" fill="#ff64ff" stroke="#000000"></path><path d="M0 295.7L0 346.3L32.2 287.7Z" fill="#ffa5ff" stroke="#000000"></path><path d="M0 346.3L0 367L90.2 383Z" fill="#ff64ff" stroke="#000000"></path><path d="M0 133.3L0 242L68.2 123.3Z" fill="#ffdcff" stroke="#000000"></path><path d="M0 367L0 444.7L38.2 446.7Z" fill="#ff45ff" stroke="#000000"></path><path d="M38.2 446.7L0 535.3L76.2 505.3Z" fill="#ffcaff" stroke="#000000"></path><path d="M76.2 505.3L63.2 600L104.5 509.7Z" fill="#ff64ff" stroke="#000000"></path><path d="M0 535.3L63.2 600L76.2 505.3Z" fill="#ff7cff" stroke="#000000"></path><path d="M66.2 56.7L0 133.3L68.2 123.3Z" fill="#ffdcff" stroke="#000000"></path><path d="M0 45.7L0 133.3L66.2 56.7Z" fill="#ff45ff" stroke="#000000"></path><path d="M0 444.7L0 535.3L38.2 446.7Z" fill="#ffffff" stroke="#000000"></path><path d="M0 0L0 45.7L66.2 56.7Z" fill="#ffa5ff" stroke="#000000"></path><path d="M0 535.3L0 600L63.2 600Z" fill="#ffcaff" stroke="#000000"></path><path d="M104.2 0L0 0L66.2 56.7Z" fill="#ff91ff" stroke="#000000"></path></g></svg>