<svg id="visual" viewBox="0 0 900 600" width="900" height="600" xmlns="http://www.w3.org/2000/svg" xmlns:xlink="http://www.w3.org/1999/xlink" version="1.1"><path d="M0 37L225 25L450 31L675 49L900 55L900 0L675 0L450 0L225 0L0 0Z" fill="#aaaaaa"></path><path d="M0 103L225 103L450 133L675 145L900 97L900 53L675 47L450 29L225 23L0 35Z" fill="#7d7d7d"></path><path d="M0 223L225 265L450 307L675 283L900 247L900 95L675 143L450 131L225 101L0 101Z" fill="#535353"></path><path d="M0 253L225 307L450 355L675 319L900 295L900 245L675 281L450 305L225 263L0 221Z" fill="#333333"></path><path d="M0 301L225 337L450 415L675 373L900 355L900 293L675 317L450 353L225 305L0 251Z" fill="#333333"></path><path d="M0 385L225 427L450 451L675 433L900 421L900 353L675 371L450 413L225 335L0 299Z" fill="#535353"></path><path d="M0 445L225 493L450 505L675 475L900 481L900 419L675 431L450 449L225 425L0 383Z" fill="#7d7d7d"></path><path d="M0 601L225 601L450 601L675 601L900 601L900 479L675 473L450 503L225 491L0 443Z" fill="#aaaaaa"></path></svg>