<svg id="visual" viewBox="0 0 900 600" width="900" height="600" xmlns="http://www.w3.org/2000/svg" xmlns:xlink="http://www.w3.org/1999/xlink" version="1.1"><rect x="0" y="0" width="900" height="600" fill="#222"></rect><path d="M872 0L806 0L806 26L878 26L878 52L826 52L826 78L841 78L841 104L823 104L823 130L898 130L898 157L785 157L785 183L861 183L861 209L800 209L800 235L897 235L897 261L825 261L825 287L796 287L796 313L873 313L873 339L799 339L799 365L820 365L820 391L777 391L777 417L815 417L815 443L874 443L874 470L781 470L781 496L841 496L841 522L788 522L788 548L843 548L843 574L803 574L803 600L0 600L0 574L0 574L0 548L0 548L0 522L0 522L0 496L0 496L0 470L0 470L0 443L0 443L0 417L0 417L0 391L0 391L0 365L0 365L0 339L0 339L0 313L0 313L0 287L0 287L0 261L0 261L0 235L0 235L0 209L0 209L0 183L0 183L0 157L0 157L0 130L0 130L0 104L0 104L0 78L0 78L0 52L0 52L0 26L0 26L0 0L0 0Z" fill="#818181"></path><path d="M782 0L767 0L767 26L788 26L788 52L805 52L805 78L700 78L700 104L798 104L798 130L750 130L750 157L819 157L819 183L806 183L806 209L730 209L730 235L769 235L769 261L802 261L802 287L744 287L744 313L747 313L747 339L783 339L783 365L792 365L792 391L773 391L773 417L736 417L736 443L821 443L821 470L709 470L709 496L817 496L817 522L750 522L750 548L789 548L789 574L746 574L746 600L0 600L0 574L0 574L0 548L0 548L0 522L0 522L0 496L0 496L0 470L0 470L0 443L0 443L0 417L0 417L0 391L0 391L0 365L0 365L0 339L0 339L0 313L0 313L0 287L0 287L0 261L0 261L0 235L0 235L0 209L0 209L0 183L0 183L0 157L0 157L0 130L0 130L0 104L0 104L0 78L0 78L0 52L0 52L0 26L0 26L0 0L0 0Z" fill="#797979"></path><path d="M687 0L718 0L718 26L709 26L709 52L720 52L720 78L653 78L653 104L708 104L708 130L740 130L740 157L669 157L669 183L656 183L656 209L636 209L636 235L678 235L678 261L682 261L682 287L668 287L668 313L686 313L686 339L735 339L735 365L703 365L703 391L722 391L722 417L634 417L634 443L689 443L689 470L702 470L702 496L728 496L728 522L710 522L710 548L699 548L699 574L627 574L627 600L0 600L0 574L0 574L0 548L0 548L0 522L0 522L0 496L0 496L0 470L0 470L0 443L0 443L0 417L0 417L0 391L0 391L0 365L0 365L0 339L0 339L0 313L0 313L0 287L0 287L0 261L0 261L0 235L0 235L0 209L0 209L0 183L0 183L0 157L0 157L0 130L0 130L0 104L0 104L0 78L0 78L0 52L0 52L0 26L0 26L0 0L0 0Z" fill="#727272"></path><path d="M641 0L674 0L674 26L560 26L560 52L563 52L563 78L682 78L682 104L638 104L638 130L570 130L570 157L560 157L560 183L648 183L648 209L660 209L660 235L562 235L562 261L668 261L668 287L664 287L664 313L569 313L569 339L603 339L603 365L655 365L655 391L650 391L650 417L612 417L612 443L557 443L557 470L576 470L576 496L642 496L642 522L665 522L665 548L688 548L688 574L599 574L599 600L0 600L0 574L0 574L0 548L0 548L0 522L0 522L0 496L0 496L0 470L0 470L0 443L0 443L0 417L0 417L0 391L0 391L0 365L0 365L0 339L0 339L0 313L0 313L0 287L0 287L0 261L0 261L0 235L0 235L0 209L0 209L0 183L0 183L0 157L0 157L0 130L0 130L0 104L0 104L0 78L0 78L0 52L0 52L0 26L0 26L0 0L0 0Z" fill="#6a6a6a"></path><path d="M537 0L509 0L509 26L491 26L491 52L612 52L612 78L552 78L552 104L595 104L595 130L559 130L559 157L525 157L525 183L510 183L510 209L580 209L580 235L549 235L549 261L607 261L607 287L509 287L509 313L593 313L593 339L505 339L505 365L511 365L511 391L517 391L517 417L547 417L547 443L564 443L564 470L623 470L623 496L534 496L534 522L598 522L598 548L496 548L496 574L581 574L581 600L0 600L0 574L0 574L0 548L0 548L0 522L0 522L0 496L0 496L0 470L0 470L0 443L0 443L0 417L0 417L0 391L0 391L0 365L0 365L0 339L0 339L0 313L0 313L0 287L0 287L0 261L0 261L0 235L0 235L0 209L0 209L0 183L0 183L0 157L0 157L0 130L0 130L0 104L0 104L0 78L0 78L0 52L0 52L0 26L0 26L0 0L0 0Z" fill="#636363"></path><path d="M480 0L528 0L528 26L506 26L506 52L550 52L550 78L444 78L444 104L417 104L417 130L490 130L490 157L506 157L506 183L492 183L492 209L422 209L422 235L504 235L504 261L433 261L433 287L419 287L419 313L544 313L544 339L464 339L464 365L480 365L480 391L448 391L448 417L462 417L462 443L506 443L506 470L539 470L539 496L547 496L547 522L490 522L490 548L531 548L531 574L474 574L474 600L0 600L0 574L0 574L0 548L0 548L0 522L0 522L0 496L0 496L0 470L0 470L0 443L0 443L0 417L0 417L0 391L0 391L0 365L0 365L0 339L0 339L0 313L0 313L0 287L0 287L0 261L0 261L0 235L0 235L0 209L0 209L0 183L0 183L0 157L0 157L0 130L0 130L0 104L0 104L0 78L0 78L0 52L0 52L0 26L0 26L0 0L0 0Z" fill="#5c5c5c"></path><path d="M403 0L457 0L457 26L480 26L480 52L444 52L444 78L475 78L475 104L475 104L475 130L358 130L358 157L462 157L462 183L384 183L384 209L397 209L397 235L372 235L372 261L361 261L361 287L469 287L469 313L401 313L401 339L445 339L445 365L443 365L443 391L367 391L367 417L404 417L404 443L431 443L431 470L485 470L485 496L478 496L478 522L405 522L405 548L480 548L480 574L409 574L409 600L0 600L0 574L0 574L0 548L0 548L0 522L0 522L0 496L0 496L0 470L0 470L0 443L0 443L0 417L0 417L0 391L0 391L0 365L0 365L0 339L0 339L0 313L0 313L0 287L0 287L0 261L0 261L0 235L0 235L0 209L0 209L0 183L0 183L0 157L0 157L0 130L0 130L0 104L0 104L0 78L0 78L0 52L0 52L0 26L0 26L0 0L0 0Z" fill="#555555"></path><path d="M293 0L346 0L346 26L306 26L306 52L324 52L324 78L287 78L287 104L330 104L330 130L348 130L348 157L296 157L296 183L316 183L316 209L303 209L303 235L388 235L388 261L415 261L415 287L369 287L369 313L383 313L383 339L395 339L395 365L380 365L380 391L283 391L283 417L342 417L342 443L352 443L352 470L384 470L384 496L349 496L349 522L343 522L343 548L388 548L388 574L303 574L303 600L0 600L0 574L0 574L0 548L0 548L0 522L0 522L0 496L0 496L0 470L0 470L0 443L0 443L0 417L0 417L0 391L0 391L0 365L0 365L0 339L0 339L0 313L0 313L0 287L0 287L0 261L0 261L0 235L0 235L0 209L0 209L0 183L0 183L0 157L0 157L0 130L0 130L0 104L0 104L0 78L0 78L0 52L0 52L0 26L0 26L0 0L0 0Z" fill="#4e4e4e"></path><path d="M221 0L315 0L315 26L213 26L213 52L217 52L217 78L245 78L245 104L312 104L312 130L329 130L329 157L229 157L229 183L223 183L223 209L338 209L338 235L242 235L242 261L272 261L272 287L347 287L347 313L240 313L240 339L280 339L280 365L320 365L320 391L279 391L279 417L230 417L230 443L209 443L209 470L240 470L240 496L325 496L325 522L306 522L306 548L259 548L259 574L338 574L338 600L0 600L0 574L0 574L0 548L0 548L0 522L0 522L0 496L0 496L0 470L0 470L0 443L0 443L0 417L0 417L0 391L0 391L0 365L0 365L0 339L0 339L0 313L0 313L0 287L0 287L0 261L0 261L0 235L0 235L0 209L0 209L0 183L0 183L0 157L0 157L0 130L0 130L0 104L0 104L0 78L0 78L0 52L0 52L0 26L0 26L0 0L0 0Z" fill="#474747"></path><path d="M190 0L211 0L211 26L241 26L241 52L147 52L147 78L217 78L217 104L143 104L143 130L190 130L190 157L211 157L211 183L149 183L149 209L275 209L275 235L182 235L182 261L274 261L274 287L228 287L228 313L228 313L228 339L174 339L174 365L154 365L154 391L179 391L179 417L171 417L171 443L165 443L165 470L176 470L176 496L161 496L161 522L182 522L182 548L270 548L270 574L240 574L240 600L0 600L0 574L0 574L0 548L0 548L0 522L0 522L0 496L0 496L0 470L0 470L0 443L0 443L0 417L0 417L0 391L0 391L0 365L0 365L0 339L0 339L0 313L0 313L0 287L0 287L0 261L0 261L0 235L0 235L0 209L0 209L0 183L0 183L0 157L0 157L0 130L0 130L0 104L0 104L0 78L0 78L0 52L0 52L0 26L0 26L0 0L0 0Z" fill="#404040"></path><path d="M78 0L156 0L156 26L131 26L131 52L135 52L135 78L122 78L122 104L151 104L151 130L79 130L79 157L146 157L146 183L112 183L112 209L147 209L147 235L131 235L131 261L98 261L98 287L72 287L72 313L163 313L163 339L121 339L121 365L150 365L150 391L94 391L94 417L105 417L105 443L72 443L72 470L190 470L190 496L98 496L98 522L118 522L118 548L93 548L93 574L101 574L101 600L0 600L0 574L0 574L0 548L0 548L0 522L0 522L0 496L0 496L0 470L0 470L0 443L0 443L0 417L0 417L0 391L0 391L0 365L0 365L0 339L0 339L0 313L0 313L0 287L0 287L0 261L0 261L0 235L0 235L0 209L0 209L0 183L0 183L0 157L0 157L0 130L0 130L0 104L0 104L0 78L0 78L0 52L0 52L0 26L0 26L0 0L0 0Z" fill="#393939"></path><path d="M35 0L110 0L110 26L119 26L119 52L136 52L136 78L98 78L98 104L28 104L28 130L71 130L71 157L109 157L109 183L16 183L16 209L130 209L130 235L98 235L98 261L59 261L59 287L80 287L80 313L58 313L58 339L60 339L60 365L59 365L59 391L23 391L23 417L97 417L97 443L100 443L100 470L87 470L87 496L71 496L71 522L57 522L57 548L119 548L119 574L6 574L6 600L0 600L0 574L0 574L0 548L0 548L0 522L0 522L0 496L0 496L0 470L0 470L0 443L0 443L0 417L0 417L0 391L0 391L0 365L0 365L0 339L0 339L0 313L0 313L0 287L0 287L0 261L0 261L0 235L0 235L0 209L0 209L0 183L0 183L0 157L0 157L0 130L0 130L0 104L0 104L0 78L0 78L0 52L0 52L0 26L0 26L0 0L0 0Z" fill="#333333"></path></svg>