<svg id="visual" viewBox="0 0 900 600" width="900" height="600" xmlns="http://www.w3.org/2000/svg" xmlns:xlink="http://www.w3.org/1999/xlink" version="1.1"><path d="M0 19L6.5 22C13 25 26 31 39 40C52 49 65 61 78 54.8C91 48.7 104 24.3 117.2 18.3C130.3 12.3 143.7 24.7 156.8 39.8C170 55 183 73 196 73C209 73 222 55 235 47C248 39 261 41 274 49C287 57 300 71 313 80C326 89 339 93 352 94C365 95 378 93 391 84C404 75 417 59 430.2 60C443.3 61 456.7 79 469.8 76C483 73 496 49 509 36C522 23 535 21 548 27C561 33 574 47 587 61C600 75 613 89 626 87C639 85 652 67 665 62C678 57 691 65 704 67C717 69 730 65 743.2 55C756.3 45 769.7 29 782.8 24C796 19 809 25 822 34C835 43 848 55 861 65C874 75 887 83 893.5 87L900 91L900 0L893.5 0C887 0 874 0 861 0C848 0 835 0 822 0C809 0 796 0 782.8 0C769.7 0 756.3 0 743.2 0C730 0 717 0 704 0C691 0 678 0 665 0C652 0 639 0 626 0C613 0 600 0 587 0C574 0 561 0 548 0C535 0 522 0 509 0C496 0 483 0 469.8 0C456.7 0 443.3 0 430.2 0C417 0 404 0 391 0C378 0 365 0 352 0C339 0 326 0 313 0C300 0 287 0 274 0C261 0 248 0 235 0C222 0 209 0 196 0C183 0 170 0 156.8 0C143.7 0 130.3 0 117.2 0C104 0 91 0 78 0C65 0 52 0 39 0C26 0 13 0 6.5 0L0 0Z" fill="#252525"></path><path d="M0 121L6.5 152C13 183 26 245 39 246C52 247 65 187 78 184C91 181 104 235 117.2 235C130.3 235 143.7 181 156.8 192C170 203 183 279 196 269C209 259 222 163 235 116C248 69 261 71 274 111C287 151 300 229 313 236C326 243 339 179 352 158C365 137 378 159 391 152C404 145 417 109 430.2 158C443.3 207 456.7 341 469.8 334C483 327 496 179 509 112C522 45 535 59 548 94C561 129 574 185 587 231C600 277 613 313 626 306C639 299 652 249 665 204C678 159 691 119 704 125C717 131 730 183 743.2 211C756.3 239 769.7 243 782.8 229C796 215 809 183 822 179C835 175 848 199 861 201C874 203 887 183 893.5 173L900 163L900 89L893.5 85C887 81 874 73 861 63C848 53 835 41 822 32C809 23 796 17 782.8 22C769.7 27 756.3 43 743.2 53C730 63 717 67 704 65C691 63 678 55 665 60C652 65 639 83 626 85C613 87 600 73 587 59C574 45 561 31 548 25C535 19 522 21 509 34C496 47 483 71 469.8 74C456.7 77 443.3 59 430.2 58C417 57 404 73 391 82C378 91 365 93 352 92C339 91 326 87 313 78C300 69 287 55 274 47C261 39 248 37 235 45C222 53 209 71 196 71C183 71 170 53 156.8 38.2C143.7 23.3 130.3 11.7 117.2 17.7C104 23.7 91 47.3 78 53.2C65 59 52 47 39 38C26 29 13 23 6.5 20L0 17Z" fill="#8a8a8a"></path><path d="M0 307L6.5 326C13 345 26 383 39 362C52 341 65 261 78 263C91 265 104 349 117.2 377C130.3 405 143.7 377 156.8 368C170 359 183 369 196 330C209 291 222 203 235 175C248 147 261 179 274 232C287 285 300 359 313 343C326 327 339 221 352 197C365 173 378 231 391 245C404 259 417 229 430.2 263C443.3 297 456.7 395 469.8 393C483 391 496 289 509 233C522 177 535 167 548 183C561 199 574 241 587 290C600 339 613 395 626 386C639 377 652 303 665 259C678 215 691 201 704 214C717 227 730 267 743.2 302C756.3 337 769.7 367 782.8 359C796 351 809 305 822 286C835 267 848 275 861 280C874 285 887 287 893.5 288L900 289L900 161L893.5 171C887 181 874 201 861 199C848 197 835 173 822 177C809 181 796 213 782.8 227C769.7 241 756.3 237 743.2 209C730 181 717 129 704 123C691 117 678 157 665 202C652 247 639 297 626 304C613 311 600 275 587 229C574 183 561 127 548 92C535 57 522 43 509 110C496 177 483 325 469.8 332C456.7 339 443.3 205 430.2 156C417 107 404 143 391 150C378 157 365 135 352 156C339 177 326 241 313 234C300 227 287 149 274 109C261 69 248 67 235 114C222 161 209 257 196 267C183 277 170 201 156.8 190C143.7 179 130.3 233 117.2 233C104 233 91 179 78 182C65 185 52 245 39 244C26 243 13 181 6.5 150L0 119Z" fill="#ffffff"></path><path d="M0 463L6.5 462C13 461 26 459 39 412C52 365 65 273 78 278C91 283 104 385 117.2 420C130.3 455 143.7 423 156.8 423C170 423 183 455 196 428C209 401 222 315 235 283C248 251 261 273 274 325C287 377 300 459 313 437C326 415 339 289 352 253C365 217 378 271 391 299C404 327 417 329 430.2 360C443.3 391 456.7 451 469.8 451C483 451 496 391 509 356C522 321 535 311 548 318C561 325 574 349 587 375C600 401 613 429 626 424C639 419 652 381 665 344C678 307 691 271 704 277C717 283 730 331 743.2 362C756.3 393 769.7 407 782.8 413C796 419 809 417 822 412C835 407 848 399 861 386C874 373 887 355 893.5 346L900 337L900 287L893.5 286C887 285 874 283 861 278C848 273 835 265 822 284C809 303 796 349 782.8 357C769.7 365 756.3 335 743.2 300C730 265 717 225 704 212C691 199 678 213 665 257C652 301 639 375 626 384C613 393 600 337 587 288C574 239 561 197 548 181C535 165 522 175 509 231C496 287 483 389 469.8 391C456.7 393 443.3 295 430.2 261C417 227 404 257 391 243C378 229 365 171 352 195C339 219 326 325 313 341C300 357 287 283 274 230C261 177 248 145 235 173C222 201 209 289 196 328C183 367 170 357 156.8 366C143.7 375 130.3 403 117.2 375C104 347 91 263 78 261C65 259 52 339 39 360C26 381 13 343 6.5 324L0 305Z" fill="#ffffff"></path><path d="M0 487L6.5 495C13 503 26 519 39 473C52 427 65 319 78 326C91 333 104 455 117.2 488C130.3 521 143.7 465 156.8 465C170 465 183 521 196 491C209 461 222 345 235 299C248 253 261 277 274 339C287 401 300 501 313 491C326 481 339 361 352 319C365 277 378 313 391 343C404 373 417 397 430.2 433C443.3 469 456.7 517 469.8 514C483 511 496 457 509 423C522 389 535 375 548 372C561 369 574 377 587 398C600 419 613 453 626 464C639 475 652 463 665 436C678 409 691 367 704 368C717 369 730 413 743.2 438C756.3 463 769.7 469 782.8 468C796 467 809 459 822 463C835 467 848 483 861 478C874 473 887 447 893.5 434L900 421L900 335L893.5 344C887 353 874 371 861 384C848 397 835 405 822 410C809 415 796 417 782.8 411C769.7 405 756.3 391 743.2 360C730 329 717 281 704 275C691 269 678 305 665 342C652 379 639 417 626 422C613 427 600 399 587 373C574 347 561 323 548 316C535 309 522 319 509 354C496 389 483 449 469.8 449C456.7 449 443.3 389 430.2 358C417 327 404 325 391 297C378 269 365 215 352 251C339 287 326 413 313 435C300 457 287 375 274 323C261 271 248 249 235 281C222 313 209 399 196 426C183 453 170 421 156.8 421C143.7 421 130.3 453 117.2 418C104 383 91 281 78 276C65 271 52 363 39 410C26 457 13 459 6.5 460L0 461Z" fill="#8a8a8a"></path><path d="M0 601L6.5 601C13 601 26 601 39 601C52 601 65 601 78 601C91 601 104 601 117.2 601C130.3 601 143.7 601 156.8 601C170 601 183 601 196 601C209 601 222 601 235 601C248 601 261 601 274 601C287 601 300 601 313 601C326 601 339 601 352 601C365 601 378 601 391 601C404 601 417 601 430.2 601C443.3 601 456.7 601 469.8 601C483 601 496 601 509 601C522 601 535 601 548 601C561 601 574 601 587 601C600 601 613 601 626 601C639 601 652 601 665 601C678 601 691 601 704 601C717 601 730 601 743.2 601C756.3 601 769.7 601 782.8 601C796 601 809 601 822 601C835 601 848 601 861 601C874 601 887 601 893.5 601L900 601L900 419L893.5 432C887 445 874 471 861 476C848 481 835 465 822 461C809 457 796 465 782.8 466C769.7 467 756.3 461 743.2 436C730 411 717 367 704 366C691 365 678 407 665 434C652 461 639 473 626 462C613 451 600 417 587 396C574 375 561 367 548 370C535 373 522 387 509 421C496 455 483 509 469.8 512C456.7 515 443.3 467 430.2 431C417 395 404 371 391 341C378 311 365 275 352 317C339 359 326 479 313 489C300 499 287 399 274 337C261 275 248 251 235 297C222 343 209 459 196 489C183 519 170 463 156.8 463C143.7 463 130.3 519 117.2 486C104 453 91 331 78 324C65 317 52 425 39 471C26 517 13 501 6.5 493L0 485Z" fill="#252525"></path></svg>